<?xml version="1.0" encoding="utf-8"?>
<svg version="1.1" xmlns="http://www.w3.org/2000/svg" xmlns:xlink="http://www.w3.org/1999/xlink" viewBox="0 0 162 350" enable-background="new 0 0 162 350" xml:space="preserve">
<path fill="#24292e" d="M67,175.6c-0.1-11.3,8.6-20.5,19.9-21.5c33.9-2.9,76.1-30.8,74.3-79c-2.1-55-59.1-89.6-109-64.9C28,22.2,13,45,28,65.2
	c31,42,72.4-4.3,43-30c-8-7-7-15-2-19c6.7-5.4,16.6-5.5,24.7-1.9c20.8,9.2,23.4,37.8,24.2,57.6c0.8,19.7,2.5,62.3-21.8,69.8
	c-27.5,8.5-41.7-19.6-46.2-42.4c-0.2-1.1-1.8-1.2-2.1,0c-5.8,27.4-20.8,61.6-46.4,74.8c-1,0.5-1,1.9,0,2.4
	c25.6,13.2,40.7,47.4,46.4,74.8c0.2,1.1,1.8,1.1,2.1,0c4.5-22.8,18.7-50.9,46.2-42.4c24.2,7.5,22.5,50.1,21.8,69.8
	c-0.8,19.9-3.4,48.4-24.2,57.6c-8.1,3.6-18,3.4-24.7-1.9c-5-4-6-12,2-19c29.4-25.7-12-72-43-30c-15,20.3,0,43,24.2,55
	c49.9,24.7,106.9-9.9,109-64.9c1.8-49.1-42-77.1-76.2-79.1C73.5,195.6,67.1,187,67,175.6z"/>
</svg>
